<svg xmlns="http://www.w3.org/2000/svg" width="16.001" height="16" viewBox="0 0 16.001 16">
  <g id="Icon_erro" data-name="Icon erro" transform="translate(-545 -440)">
    <path id="Subtraction_6" data-name="Subtraction 6" d="M8,16a8,8,0,1,1,8-8A8.01,8.01,0,0,1,8,16Zm0-5.529a.89.89,0,0,0-.639.211.963.963,0,0,0,0,1.232A.878.878,0,0,0,8,12.132a.855.855,0,0,0,.625-.222.949.949,0,0,0,0-1.223A.868.868,0,0,0,8,10.472ZM7.16,4.861l.249,4.771H8.6l.248-4.771Z" transform="translate(545 440)" fill="#ec0000"/>
  </g>
</svg>
