<?xml version="1.0" encoding="iso-8859-1"?>
<!-- Generator: Adobe Illustrator 15.1.0, SVG Export Plug-In . SVG Version: 6.00 Build 0)  -->
<!DOCTYPE svg PUBLIC "-//W3C//DTD SVG 1.1//EN" "http://www.w3.org/Graphics/SVG/1.1/DTD/svg11.dtd">
<svg version="1.1" id="Ebene_1" xmlns="http://www.w3.org/2000/svg" xmlns:xlink="http://www.w3.org/1999/xlink" x="0px" y="0px"
	 width="373.602px" height="37.051px" viewBox="0 0 373.602 37.051" style="enable-background:new 0 0 373.602 37.051;"
	 xml:space="preserve">
<g>
	<defs>
		<rect id="SVGID_1_" x="-91.836" y="-297.98" width="595.28" height="841.89"/>
	</defs>
	<clipPath id="SVGID_2_">
		<use xlink:href="#SVGID_1_"  style="overflow:visible;"/>
	</clipPath>
	<path style="clip-path:url(#SVGID_2_);fill:#E30613;" d="M354.575,8.231c-0.926-0.942-1.391-2.079-1.391-3.41
		c0-1.301,0.465-2.441,1.377-3.383C355.487,0.486,356.608,0,357.909,0c1.277,0,2.395,0.476,3.323,1.425
		c0.931,0.943,1.405,2.095,1.405,3.396c0,1.331-0.465,2.468-1.395,3.41c-0.929,0.949-2.057,1.423-3.334,1.423
		C356.608,9.654,355.487,9.18,354.575,8.231 M373.602,19.118v-2.932c0-2.771-2.248-5.025-5.021-5.025h-21.346
		c-2.773,0-5.02,2.254-5.02,5.025v11.04h23.811V28.9h-23.811v2.928c0,2.773,2.246,5.022,5.02,5.022h21.346
		c2.773,0,5.021-2.249,5.021-5.022V20.79h-23.809v-1.672H373.602z M114.101,8.231c-0.926-0.942-1.391-2.079-1.391-3.41
		c0-1.301,0.465-2.441,1.377-3.383C115.013,0.486,116.133,0,117.435,0c1.277,0,2.394,0.476,3.322,1.425
		c0.932,0.943,1.406,2.095,1.406,3.396c0,1.331-0.465,2.468-1.394,3.41c-0.93,0.949-2.057,1.423-3.334,1.423
		C116.133,9.654,115.013,9.18,114.101,8.231 M133.127,19.118v-2.932c0-2.771-2.248-5.025-5.021-5.025H106.76
		c-2.774,0-5.02,2.254-5.02,5.025v11.04h23.811V28.9H101.74v2.928c0,2.773,2.246,5.022,5.02,5.022h21.346
		c2.773,0,5.021-2.249,5.021-5.022V20.79h-23.809v-1.672H133.127z"/>
	<path style="clip-path:url(#SVGID_2_);fill:#00497B;" d="M155.021,10.966c5.337,0,8.106,0.601,8.106,3.09v2.528h-7.303
		c-1.967,0-2.529,0.521-2.529,1.564c0,3.091,11.156,2.449,11.156,11.117c0,4.133-2.367,7.785-9.591,7.785
		c-4.735,0-8.467-0.762-8.467-3.09v-2.528h8.628c1.765,0,2.608-0.562,2.608-1.806c0-3.371-11.116-2.729-11.116-11.638
		C146.513,14.056,149.121,10.966,155.021,10.966 M167.26,13.453c0-1.524,0.682-2.287,2.207-2.287h8.347
		c5.859,0,9.31,2.568,9.31,7.825c0,5.097-3.451,7.425-9.31,7.425h-4.134v10.433h-6.42V13.453z M173.68,16.583v4.614h3.653
		c2.126,0,3.37-0.441,3.37-2.327c0-1.846-1.244-2.287-3.37-2.287H173.68z M200.447,11.086c1.083,0,1.604,0.12,1.845,1.043
		l5.98,23.718c0.08,0.36,0.12,0.721,0.12,1.002h-5.257c-1.084,0-1.404-0.08-1.605-0.962l-1.245-5.137h-5.979l-1.163,5.137
		c-0.201,0.882-0.523,0.962-1.606,0.962h-5.217c0-0.281,0.04-0.601,0.12-1.002l5.98-23.718c0.241-0.923,0.763-1.043,1.846-1.043
		H200.447z M195.27,25.933h3.972l-1.926-8.226h-0.16L195.27,25.933z M210.398,13.453c0-1.524,0.683-2.287,2.207-2.287h8.348
		c5.858,0,9.229,2.688,9.229,7.745c0,3.491-1.324,5.739-4.494,7.022l5.016,9.792c0.16,0.362,0.361,0.723,0.361,1.124h-5.538
		c-1.163,0-1.646,0-2.207-1.164l-4.495-9.269h-2.006v10.433h-6.421V13.453z M216.819,16.583v4.614h3.652
		c1.846,0,3.29-0.24,3.29-2.287c0-2.007-1.444-2.327-3.29-2.327H216.819z M239.692,22.924l6.42-10.594
		c0.603-1.044,0.963-1.164,1.807-1.164h6.02c0,0.401-0.08,0.723-0.321,1.124l-7.384,11.276l7.745,12.159
		c0.2,0.322,0.361,0.723,0.361,1.124h-5.819c-1.203,0-1.564-0.08-2.247-1.164l-6.581-10.553v11.717h-6.422V13.453
		c0-1.524,0.684-2.287,2.208-2.287h4.214V22.924z M268.865,11.086c1.083,0,1.604,0.12,1.847,1.043l5.979,23.718
		c0.08,0.36,0.121,0.721,0.121,1.002h-5.258c-1.084,0-1.404-0.08-1.605-0.962l-1.244-5.137h-5.979l-1.164,5.137
		c-0.201,0.882-0.521,0.962-1.605,0.962h-5.217c0-0.281,0.04-0.601,0.12-1.002l5.979-23.718c0.24-0.923,0.763-1.043,1.846-1.043
		H268.865z M263.688,25.933h3.972l-1.925-8.226h-0.161L263.688,25.933z M286.842,10.966c5.338,0,8.105,0.601,8.105,3.09v2.528
		h-7.303c-1.967,0-2.529,0.521-2.529,1.564c0,3.091,11.158,2.449,11.158,11.117c0,4.133-2.369,7.785-9.592,7.785
		c-4.736,0-8.468-0.762-8.468-3.09v-2.528h8.628c1.766,0,2.608-0.562,2.608-1.806c0-3.371-11.116-2.729-11.116-11.638
		C278.334,14.056,280.943,10.966,286.842,10.966 M306.706,10.966c5.338,0,8.107,0.601,8.107,3.09v2.528h-7.305
		c-1.967,0-2.527,0.521-2.527,1.564c0,3.091,11.156,2.449,11.156,11.117c0,4.133-2.369,7.785-9.592,7.785
		c-4.734,0-8.467-0.762-8.467-3.09v-2.528h8.627c1.766,0,2.609-0.562,2.609-1.806c0-3.371-11.117-2.729-11.117-11.638
		C298.198,14.056,300.807,10.966,306.706,10.966 M318.944,13.453c0-1.524,0.684-2.287,2.207-2.287h14.047v3.17
		c0,1.525-0.764,2.248-2.288,2.248h-7.544v4.614h8.428v5.218h-8.428v5.016h10.033v3.17c0,1.525-0.764,2.247-2.289,2.247h-11.959
		c-1.523,0-2.207-0.762-2.207-2.287V13.453z M0,13.454c0-1.525,0.683-2.288,2.207-2.288h14.046v3.171
		c0,1.525-0.762,2.247-2.287,2.247H6.421v4.615h8.428v5.217H6.421v5.017h10.032v3.169c0,1.526-0.761,2.248-2.287,2.248H2.207
		C0.683,36.85,0,36.087,0,34.562V13.454z M19.066,13.454c0-1.525,0.682-2.288,2.208-2.288h8.346c5.86,0,9.231,2.689,9.231,7.746
		c0,3.491-1.324,5.738-4.495,7.022l5.016,9.792c0.16,0.361,0.362,0.723,0.362,1.124h-5.538c-1.164,0-1.646,0-2.207-1.164
		l-4.496-9.27h-2.006V36.85h-6.421V13.454z M25.487,16.583v4.615h3.652c1.846,0,3.291-0.241,3.291-2.287
		c0-2.007-1.445-2.328-3.291-2.328H25.487z M49.368,10.966c5.338,0,8.107,0.602,8.107,3.09v2.528h-7.304
		c-1.966,0-2.528,0.522-2.528,1.565c0,3.09,11.156,2.448,11.156,11.117c0,4.133-2.367,7.785-9.591,7.785
		c-4.735,0-8.467-0.763-8.467-3.09v-2.528h8.627c1.766,0,2.609-0.562,2.609-1.807c0-3.37-11.116-2.729-11.116-11.637
		C40.861,14.056,43.469,10.966,49.368,10.966 M76.46,11.166v3.251c0,1.485-0.762,2.167-2.247,2.167h-3.171V36.85h-6.421V16.583
		h-5.417v-3.251c0-1.484,0.762-2.167,2.247-2.167H76.46z M78.47,13.454c0-1.525,0.683-2.288,2.208-2.288h14.045v3.171
		c0,1.525-0.762,2.247-2.287,2.247h-7.545v4.615h8.428v5.217h-8.428v5.017h10.033v3.169c0,1.526-0.763,2.248-2.287,2.248H80.678
		c-1.525,0-2.208-0.763-2.208-2.288V13.454z"/>
</g>
</svg>
