<?xml version="1.0" encoding="UTF-8"?>
<svg width="155px" height="28px" viewBox="0 0 155 28" version="1.1" xmlns="http://www.w3.org/2000/svg" xmlns:xlink="http://www.w3.org/1999/xlink">
    <!-- Generator: Sketch 56 (81588) - https://sketch.com -->
    <title>Fill 1</title>
    <desc>Created with Sketch.</desc>
    <g id="Footer" stroke="none" stroke-width="1" fill="none" fill-rule="evenodd">
        <g id="Footer-Módulos" transform="translate(-162.000000, -528.000000)" fill="#FFFFFF">
            <path d="M317,540.576456 C317,541.488841 316.892809,542.594442 316.732023,543.174872 C316.035093,543.091786 315.337972,543.064156 314.506863,543.064156 C313.783135,543.064156 313.059217,543.119612 312.335489,543.229937 L312.335489,555.060376 L309.386602,555.060376 L309.386602,541.239973 C310.646664,540.797693 312.764443,540.466131 314.42647,540.466131 C315.337972,540.466131 316.356665,540.493761 317,540.576456 Z M297.215313,546.602196 L303.863804,546.602196 C303.863804,544.335734 302.684325,543.008895 300.64675,543.008895 C298.555769,543.008895 297.456683,544.252843 297.215313,546.602196 Z M306.678323,549.145157 L297.268909,549.145157 C297.644267,551.605227 299.038127,552.793718 301.665252,552.793718 C303.273875,552.793718 304.909295,552.434329 306.383549,551.743378 C306.276358,552.545046 306.115572,553.595191 305.927798,554.507184 C304.587342,555.143071 303.166684,555.391743 301.584859,555.391743 C296.652372,555.391743 294.266616,552.57248 294.266616,547.846144 C294.266616,543.727673 296.116418,540.466131 300.807536,540.466131 C305.016296,540.466131 306.8393,543.312828 306.8393,546.795804 C306.8393,547.652733 306.785704,548.343684 306.678323,549.145157 Z M288.931212,551.853703 L288.931212,543.340654 C288.153889,543.174872 287.349578,543.064156 286.572064,543.064156 C283.649975,543.064156 282.256114,544.943991 282.256114,548.095012 C282.256114,550.914079 283.35539,552.904435 285.982515,552.904435 C287.161994,552.904435 288.127091,552.48959 288.931212,551.853703 Z M291.853112,535.711772 L291.853112,555.060376 L289.145594,555.060376 L288.984998,553.291258 C288.234092,554.590467 287.081411,555.391743 285.151406,555.391743 C281.612969,555.391743 279.253631,552.738262 279.253631,548.095012 C279.253631,543.229937 281.773565,540.466131 286.733041,540.466131 C287.510364,540.466131 288.234092,540.549021 288.931212,540.687172 L288.931212,536.126422 C289.842714,535.794859 290.888015,535.711772 291.853112,535.711772 Z M276.893723,545.773093 L276.893723,555.060376 L273.945215,555.060376 L273.945215,546.298264 C273.945215,544.114692 273.248095,543.064156 270.299207,543.064156 C269.602277,543.064156 268.771168,543.147242 267.967047,543.285393 L267.967047,555.060376 L265.018159,555.060376 L265.018159,541.239973 C266.894569,540.770063 268.958752,540.466131 270.3796,540.466131 C275.312278,540.466131 276.893723,542.428464 276.893723,545.773093 Z M258.851647,551.909159 L258.851647,543.229937 C258.2353,543.119612 257.564787,543.064156 256.734058,543.064156 C253.67779,543.064156 252.257132,544.999251 252.257132,548.095012 C252.257132,550.914079 253.356408,552.904435 255.983343,552.904435 C257.135834,552.904435 258.074514,552.517416 258.851647,551.909159 Z M261.800535,541.239973 L261.800535,555.060376 L259.093016,555.060376 L258.93242,553.401975 C258.181514,554.618097 257.028833,555.391743 255.152424,555.391743 C251.613797,555.391743 249.254839,552.738262 249.254839,548.095012 C249.254839,543.229937 251.774583,540.466131 256.734058,540.466131 C258.664063,540.466131 260.245888,540.687172 261.800535,541.239973 Z M245.983428,552.793718 C246.841145,552.793718 247.645646,552.627741 248.288981,552.379265 C248.208588,553.208171 248.101207,554.148187 247.940421,554.949464 C247.13611,555.281222 246.278393,555.391743 245.447284,555.391743 C242.57898,555.391743 240.755976,554.03747 240.755976,550.665407 L240.755976,536.154052 C241.667478,535.850119 242.793362,535.711772 243.705054,535.711772 L243.705054,540.935844 L248.369374,540.935844 C248.315779,541.875664 248.235386,542.732593 248.101207,543.534065 L243.705054,543.534065 L243.705054,550.306214 C243.705054,552.102767 244.56277,552.793718 245.983428,552.793718 Z M237.806328,545.773093 L237.806328,555.060376 L234.857631,555.060376 L234.857631,546.298264 C234.857631,544.114692 234.16051,543.064156 231.211813,543.064156 C230.514692,543.064156 229.683774,543.147242 228.879462,543.285393 L228.879462,555.060376 L225.930765,555.060376 L225.930765,541.239973 C227.807174,540.770063 229.871358,540.466131 231.292206,540.466131 C236.224884,540.466131 237.806328,542.428464 237.806328,545.773093 Z M219.764253,551.909159 L219.764253,543.229937 C219.147715,543.119612 218.477583,543.064156 217.646474,543.064156 C214.590395,543.064156 213.169737,544.999251 213.169737,548.095012 C213.169737,550.914079 214.268823,552.904435 216.895948,552.904435 C218.048629,552.904435 218.986929,552.517416 219.764253,551.909159 Z M222.71314,541.239973 L222.71314,555.060376 L220.005622,555.060376 L219.844836,553.401975 C219.09412,554.618097 217.941249,555.391743 216.064839,555.391743 C212.526212,555.391743 210.167254,552.738262 210.167254,548.095012 C210.167254,543.229937 212.686998,540.466131 217.646474,540.466131 C219.576669,540.466131 221.158303,540.687172 222.71314,541.239973 Z M195.931783,554.45212 C195.985378,553.318888 196.146164,552.545046 196.440939,551.660487 C197.94218,552.379265 199.872375,552.738262 201.346819,552.738262 C203.839956,552.738262 205.234006,551.909159 205.234006,550.278388 C205.234006,548.675247 204.215313,547.928839 201.695379,546.795804 L200.328126,546.187743 C197.808192,545.054316 196.092569,543.589326 196.092569,540.659542 C196.092569,537.508717 198.210538,535.49073 202.553286,535.49073 C204.295707,535.49073 205.930937,535.739598 207.458976,536.292399 C207.378583,537.398 207.190999,538.254929 206.922832,539.056401 C205.475186,538.503601 203.759563,538.254929 202.526298,538.254929 C200.194138,538.254929 199.12185,539.194748 199.12185,540.659542 C199.12185,542.096902 200.16734,542.926004 202.043749,543.755499 L203.491585,544.390994 C206.896034,545.883614 208.316692,547.459125 208.316692,550.140237 C208.316692,553.318888 205.984532,555.50246 201.427212,555.50246 C199.22904,555.50246 197.433024,555.170897 195.931783,554.45212 Z M181.634353,537.910433 L177.165409,529.929609 C176.824641,529.32096 176.589163,528.668808 176.458406,528 L176.271772,528.333522 C175.165654,530.308985 175.165654,532.742405 176.271582,534.717868 L179.84689,541.102802 C180.952817,543.078069 180.952817,545.51188 179.84689,547.487343 L179.660066,547.820865 C179.529308,547.152057 179.293831,546.499906 178.953063,545.891257 L173.590291,536.31415 C173.249523,535.705502 173.014236,535.05335 172.883288,534.384542 L172.696654,534.718064 C171.594338,536.686864 171.590917,539.110682 172.685821,541.082618 L176.271772,547.487343 C177.37789,549.46261 177.37789,551.896422 176.271772,553.871885 L176.084948,554.205407 C175.954191,553.536599 175.718713,552.884447 175.377945,552.275994 L170.909191,544.294974 C170.309758,543.224646 170.03589,542.019694 170.086064,540.825911 C165.302009,542.114734 162,544.851106 162,548.019372 C162,552.426883 168.389637,556 176.271772,556 C184.153717,556 190.543354,552.426883 190.543354,548.019372 C190.543354,544.85091 187.241725,542.113754 182.45729,540.825128 C182.414908,539.816134 182.141039,538.815176 181.634353,537.910433 Z" id="Fill-1"></path>
        </g>
    </g>
</svg>