<?xml version="1.0" encoding="UTF-8"?>
<svg xmlns="http://www.w3.org/2000/svg" xmlns:xlink="http://www.w3.org/1999/xlink" xmlns:svgjs="http://svgjs.com/svgjs" version="1.1" width="512" height="512" x="0" y="0" viewBox="0 0 512 512" style="enable-background:new 0 0 512 512" xml:space="preserve" class="">
  <g>
    <g xmlns="http://www.w3.org/2000/svg">
      <g>
        <g>
          <g>
            <g>
              <g>
                <g>
                  <g>
                    <g>
                      <g>
                        <g>
                          <g>
                            <g>
                              <circle cx="256" cy="256" fill="#000000" r="256" data-original="#ffe670" style="" class=""/>
                            </g>
                          </g>
                        </g>
                      </g>
                    </g>
                  </g>
                </g>
              </g>
            </g>
          </g>
        </g>
      </g>
      <path d="m294.032 209.819-215.603 20.179 119.313 119.313-115.162 61.262 86.162 86.162c27.233 9.873 56.615 15.265 87.258 15.265 134.285 0 244.408-103.397 255.13-234.918l-185.859-185.859z" fill="#a4a3a1" data-original="#fcd32b" style="" class=""/>
      <g>
        <path d="m82.58 410.573h173.42l17.228-153.756-17.228-154.313-31.749-17.28c-16.645-9.059-37.453-1.255-44.035 16.515l-34.755 93.831c-42.785 6.406-70.342 16.442-70.342 27.725 0 11.451 28.376 21.617 72.251 28.009-2.174 8.709-3.344 17.815-3.344 27.197 0 12.238 1.991 24.005 5.62 35.028h-29.737l23.915 41.184c-23.839 14.528-44.653 33.528-61.244 55.86z" fill="#00347b" data-original="#00347b" style="" class=""/>
        <path d="m436.881 223.296c0-11.283-27.557-21.319-70.342-27.725l-34.755-93.831c-6.582-17.771-27.391-25.575-44.035-16.515l-31.749 17.279v308.069h173.42c-16.591-22.332-37.406-41.332-61.244-55.86l23.915-41.184h-29.737c3.629-11.023 5.62-22.79 5.62-35.028 0-9.382-1.17-18.488-3.343-27.197 43.874-6.391 72.25-16.557 72.25-28.008z" fill="#002459" data-original="#002659" style="" class=""/>
        <g>
          <g>
            <path d="m236.033 269.639c0 17.51-14.194 31.704-31.704 31.704s-31.704-14.194-31.704-31.704v-14.476z" fill="#902e2e" data-original="#0acb72" style="" class=""/>
            <path d="m275.967 269.639c0 17.51 14.194 31.704 31.704 31.704s31.704-14.194 31.704-31.704v-14.476z" fill="#902e2e" data-original="#02aa56" style="" class=""/>
          </g>
        </g>
      </g>
    </g>
  </g>
</svg>
